<svg width="960" height="560" viewBox="0 0 960 560" fill="none" xmlns="http://www.w3.org/2000/svg">
<rect width="960" height="560" fill="#FF4552"/>
<path d="M149.054 305.3L132.654 297.1C131.954 298.5 130.554 307.1 122.154 307.1C115.754 307.1 112.154 304.2 112.154 285.2C112.154 266.3 115.754 263.4 122.154 263.4C127.554 263.4 131.054 268.5 132.754 273.1L148.254 264.4C143.454 255.4 137.154 249.4 122.154 249.4C104.554 249.4 93.7539 257 93.7539 285.2C93.7539 313.5 104.554 321.1 122.154 321.1C134.254 321.1 142.954 316.8 149.054 305.3ZM180.515 321.1C193.515 321.1 207.215 314.2 207.215 294.9C207.215 275.7 193.515 268.8 180.515 268.8C167.415 268.8 153.715 275.7 153.715 294.9C153.715 314.2 167.415 321.1 180.515 321.1ZM180.515 307.1C178.515 307.1 172.115 306.9 172.115 294.9C172.115 283 178.515 282.8 180.515 282.8C182.415 282.8 188.815 283 188.815 294.9C188.815 306.9 182.415 307.1 180.515 307.1ZM244.376 268.9C238.976 268.9 234.776 270.9 231.776 274.2C230.476 272.1 229.076 270 229.076 270H217.476V285.5V320H235.376V286.7C236.676 284.6 238.676 282.9 242.376 282.9C246.376 282.9 247.376 285.8 247.376 290.5V320H265.276V291.8C265.276 275.5 255.076 268.9 244.376 268.9ZM300.337 321.1C314.637 321.1 324.737 315.9 324.637 305.1C324.637 292.2 307.337 289.2 300.137 287.3C296.837 286.5 294.237 285.8 294.237 284C294.237 282.6 297.237 281.2 302.137 281.4C306.937 281.5 309.837 283.7 312.137 287.3L324.237 279.1C319.937 272.5 313.137 268.8 301.237 268.8C288.437 268.8 277.737 274.3 277.637 283.1C277.437 294 289.237 298.3 298.837 300.4C305.037 301.7 307.837 302.9 307.837 304.7C307.837 306.4 305.837 307.7 301.237 307.7C294.737 307.7 289.837 305.3 287.737 301.7L273.937 310.4C278.337 316.9 287.137 321.1 300.337 321.1ZM382.498 283.9V270H365.998V252H348.198V270H334.198V283.9H348.198V307.8C348.198 319.5 357.398 321.1 367.698 321.1C374.398 321.1 380.898 320.1 381.698 320V305.8C381.398 306 374.698 307.7 370.398 307.7C367.998 307.7 365.998 306.4 365.998 300.1V283.9H382.498ZM449.959 312.7L443.659 306.4V284.5C443.659 273.9 433.859 268.8 421.259 268.8C411.759 268.8 403.759 270.8 397.359 277.2L407.959 287.3C410.459 284.5 413.559 282.7 420.059 282.7C424.759 282.7 425.659 285.6 425.759 288.4H421.059C403.059 288.4 396.059 293.6 396.059 304.7C396.059 315.9 403.759 321.1 419.059 321.1C425.659 321.1 430.459 318.7 433.459 316.4L439.659 322.5L449.959 312.7ZM413.259 304.7C413.259 303.6 412.759 299.6 424.459 299.6H425.759V306.4C424.659 307 423.159 307.5 420.759 307.5C413.459 307.5 413.259 305.8 413.259 304.7ZM484.22 268.9C478.82 268.9 474.62 270.9 471.62 274.2C470.32 272.1 468.92 270 468.92 270H457.32V285.5V320H475.22V286.7C476.52 284.6 478.52 282.9 482.22 282.9C486.22 282.9 487.22 285.8 487.22 290.5V320H505.12V291.8C505.12 275.5 494.92 268.9 484.22 268.9ZM562.38 283.9V270H545.88V252H528.08V270H514.08V283.9H528.08V307.8C528.08 319.5 537.28 321.1 547.58 321.1C554.28 321.1 560.78 320.1 561.58 320V305.8C561.28 306 554.58 307.7 550.28 307.7C547.88 307.7 545.88 306.4 545.88 300.1V283.9H562.38ZM601.541 268.8C585.141 268.8 576.441 279.8 576.441 294.9C576.441 309.8 584.241 321.1 601.241 321.1C611.741 321.1 620.441 316.7 624.041 310.7L610.141 303C608.041 306.2 606.041 307.2 600.941 307.1C596.141 306.9 594.341 304.5 593.741 300.5H625.741C626.741 280 618.441 268.8 601.541 268.8ZM593.941 290.1C594.941 284.8 597.641 282.5 602.241 282.5C607.641 282.5 610.441 286.2 610.241 290.1H593.941ZM660.802 276C655.502 274.1 653.402 270.6 653.402 268.4C653.402 265.8 655.602 263.4 661.302 263.4C666.302 263.4 670.502 266.4 672.802 271.7L686.302 264.4C683.102 255.1 673.202 249.4 661.302 249.4C647.602 249.4 634.902 254.3 634.902 268C634.902 283.7 650.802 289 657.802 291.4C664.402 293.7 668.602 296.5 668.602 300.3C668.602 304.5 664.302 307.1 659.202 307.1C652.702 307.1 648.602 303.5 646.302 298.5L631.302 305.9C635.902 315.6 644.702 321.1 659.202 321.1C674.202 321.1 687.002 316.1 687.002 299.9C687.002 283.2 669.202 279 660.802 276ZM749.763 312.7L743.463 306.4V284.5C743.463 273.9 733.663 268.8 721.063 268.8C711.563 268.8 703.563 270.8 697.163 277.2L707.763 287.3C710.263 284.5 713.363 282.7 719.863 282.7C724.563 282.7 725.463 285.6 725.563 288.4H720.863C702.863 288.4 695.863 293.6 695.863 304.7C695.863 315.9 703.563 321.1 718.863 321.1C725.463 321.1 730.263 318.7 733.263 316.4L739.463 322.5L749.763 312.7ZM713.063 304.7C713.063 303.6 712.563 299.6 724.263 299.6H725.563V306.4C724.463 307 722.963 307.5 720.563 307.5C713.263 307.5 713.063 305.8 713.063 304.7ZM784.024 268.9C778.624 268.9 774.424 270.9 771.424 274.2C770.124 272.1 768.724 270 768.724 270H757.124V285.5V320H775.024V286.7C776.324 284.6 778.324 282.9 782.024 282.9C786.024 282.9 787.024 285.8 787.024 290.5V320H804.924V291.8C804.924 275.5 794.724 268.9 784.024 268.9ZM839.985 321.1C854.285 321.1 864.385 315.9 864.285 305.1C864.285 292.2 846.985 289.2 839.785 287.3C836.485 286.5 833.885 285.8 833.885 284C833.885 282.6 836.885 281.2 841.785 281.4C846.585 281.5 849.485 283.7 851.785 287.3L863.885 279.1C859.585 272.5 852.785 268.8 840.885 268.8C828.085 268.8 817.385 274.3 817.285 283.1C817.085 294 828.885 298.3 838.485 300.4C844.685 301.7 847.485 302.9 847.485 304.7C847.485 306.4 845.485 307.7 840.885 307.7C834.385 307.7 829.485 305.3 827.385 301.7L813.585 310.4C817.985 316.9 826.785 321.1 839.985 321.1Z" fill="white"/>
</svg>
